<svg width="38" height="38" viewBox="0 0 38 38" fill="none" xmlns="http://www.w3.org/2000/svg">
<path d="M19 38C29.4934 38 38 29.4934 38 19C38 8.50659 29.4934 0 19 0C8.50659 0 0 8.50659 0 19C0 29.4934 8.50659 38 19 38Z" fill="#FF4500"/>
<path d="M31.6394 19.1811C31.6394 17.6409 30.3938 16.4177 28.876 16.4177C28.1286 16.4177 27.4488 16.712 26.9506 17.1878C25.0481 15.8287 22.443 14.9454 19.5436 14.8322L20.8119 8.89748L24.9345 9.78077C24.9801 10.8228 25.8406 11.6609 26.9054 11.6609C27.9927 11.6609 28.876 10.7776 28.876 9.68999C28.876 8.60277 27.9927 7.71948 26.9054 7.71948C26.1353 7.71948 25.4555 8.17253 25.1384 8.8295L20.5404 7.85544C20.4045 7.83264 20.2685 7.85544 20.1778 7.92342C20.0646 7.99139 19.9966 8.10455 19.9742 8.2405L18.5695 14.8546C15.6249 14.9454 12.9746 15.8287 11.0493 17.2106C10.5511 16.7348 9.87131 16.4405 9.12398 16.4405C7.58371 16.4405 6.36053 17.686 6.36053 19.2039C6.36053 20.3363 7.03989 21.2876 7.99158 21.7183C7.94598 21.9897 7.9236 22.2617 7.9236 22.5564C7.9236 26.8145 12.8843 30.2805 19.0002 30.2805C25.1161 30.2805 30.0768 26.8373 30.0768 22.5564C30.0768 22.2845 30.054 21.9897 30.0088 21.7183C30.96 21.2876 31.6394 20.3135 31.6394 19.1811ZM12.6576 21.1516C12.6576 20.0644 13.5408 19.1811 14.6285 19.1811C15.7157 19.1811 16.599 20.0644 16.599 21.1516C16.599 22.2389 15.7157 23.1226 14.6285 23.1226C13.5408 23.145 12.6576 22.2389 12.6576 21.1516ZM23.689 26.3842C22.3298 27.7434 19.7475 27.8341 19.0002 27.8341C18.23 27.8341 15.6477 27.7206 14.311 26.3842C14.1075 26.1803 14.1075 25.8632 14.311 25.6593C14.5149 25.4558 14.832 25.4558 15.0359 25.6593C15.8968 26.5202 17.709 26.8145 19.0002 26.8145C20.2913 26.8145 22.1259 26.5202 22.964 25.6593C23.1679 25.4558 23.485 25.4558 23.689 25.6593C23.8701 25.8632 23.8701 26.1803 23.689 26.3842ZM23.3263 23.1449C22.239 23.1449 21.3558 22.2617 21.3558 21.1744C21.3558 20.0872 22.239 19.2039 23.3263 19.2039C24.4139 19.2039 25.2972 20.0872 25.2972 21.1744C25.2972 22.2389 24.4139 23.1449 23.3263 23.1449Z" fill="white"/>
</svg>
